<svg xmlns="http://www.w3.org/2000/svg" width="900" height="518" viewBox="0 0 900 518" role="img" aria-label="Numeric association with log quoted price"><rect width="100%" height="100%" fill="#fbfaf7"/><text x="30" y="34" font-family="sans-serif" font-size="22" font-weight="700" fill="#17252a">Numeric association with log quoted price</text><text x="30" y="58" font-family="sans-serif" font-size="13" fill="#526066">Absolute Pearson correlation; descriptive and not causal.</text><text x="30" y="104" font-family="sans-serif" font-size="12" fill="#17252a">accommodates</text><rect x="260" y="88" width="560.0" height="22" rx="3" fill="#d97b29"/><text x="828.0" y="104" font-family="sans-serif" font-size="12" fill="#17252a">0.62</text><text x="30" y="138" font-family="sans-serif" font-size="12" fill="#17252a">beds</text><rect x="260" y="122" width="530.0" height="22" rx="3" fill="#d97b29"/><text x="798.0" y="138" font-family="sans-serif" font-size="12" fill="#17252a">0.59</text><text x="30" y="172" font-family="sans-serif" font-size="12" fill="#17252a">bedrooms</text><rect x="260" y="156" width="514.5" height="22" rx="3" fill="#d97b29"/><text x="782.5" y="172" font-family="sans-serif" font-size="12" fill="#17252a">0.57</text><text x="30" y="206" font-family="sans-serif" font-size="12" fill="#17252a">bathrooms</text><rect x="260" y="190" width="468.0" height="22" rx="3" fill="#d97b29"/><text x="736.0" y="206" font-family="sans-serif" font-size="12" fill="#17252a">0.52</text><text x="30" y="240" font-family="sans-serif" font-size="12" fill="#17252a">minimum_nights</text><rect x="260" y="224" width="426.9" height="22" rx="3" fill="#d97b29"/><text x="694.9" y="240" font-family="sans-serif" font-size="12" fill="#17252a">0.47</text><text x="30" y="274" font-family="sans-serif" font-size="12" fill="#17252a">stay_nights</text><rect x="260" y="258" width="424.6" height="22" rx="3" fill="#d97b29"/><text x="692.6" y="274" font-family="sans-serif" font-size="12" fill="#17252a">0.47</text><text x="30" y="308" font-family="sans-serif" font-size="12" fill="#17252a">amenities_count</text><rect x="260" y="292" width="329.1" height="22" rx="3" fill="#d97b29"/><text x="597.1" y="308" font-family="sans-serif" font-size="12" fill="#17252a">0.36</text><text x="30" y="342" font-family="sans-serif" font-size="12" fill="#17252a">longitude</text><rect x="260" y="326" width="245.0" height="22" rx="3" fill="#d97b29"/><text x="513.0" y="342" font-family="sans-serif" font-size="12" fill="#17252a">0.27</text><text x="30" y="376" font-family="sans-serif" font-size="12" fill="#17252a">distance_to_nearest_reference_beac</text><rect x="260" y="360" width="209.7" height="22" rx="3" fill="#d97b29"/><text x="477.7" y="376" font-family="sans-serif" font-size="12" fill="#17252a">0.23</text><text x="30" y="410" font-family="sans-serif" font-size="12" fill="#17252a">checkin_day_of_week</text><rect x="260" y="394" width="145.9" height="22" rx="3" fill="#d97b29"/><text x="413.9" y="410" font-family="sans-serif" font-size="12" fill="#17252a">0.16</text><text x="30" y="444" font-family="sans-serif" font-size="12" fill="#17252a">latitude</text><rect x="260" y="428" width="128.4" height="22" rx="3" fill="#d97b29"/><text x="396.4" y="444" font-family="sans-serif" font-size="12" fill="#17252a">0.14</text><text x="30" y="478" font-family="sans-serif" font-size="12" fill="#17252a">quote_lead_days</text><rect x="260" y="462" width="103.8" height="22" rx="3" fill="#d97b29"/><text x="371.8" y="478" font-family="sans-serif" font-size="12" fill="#17252a">0.11</text></svg>
